<?xml version="1.0" encoding="UTF-8"?> <svg xmlns="http://www.w3.org/2000/svg" xmlns:xlink="http://www.w3.org/1999/xlink" width="601" height="503"><defs><path id="a" d="M0 .422h299.382V14.4H0z"></path></defs><g fill="none" fill-rule="evenodd"><path d="M133.287 88.449c-45.88 40.09-89.938 81.86-116.347 130.98C7.15 237.634-.198 257.09 0 277.183c.189 18.505 6.79 36.924 16.146 54.21 25.396 46.92 72.369 87.336 130.155 111.15 28.56 11.77 59.44 19.558 90.766 25.407 46.188 8.622 95.04 13.103 140.557 4.157 44.203-8.69 82.526-29.547 115.23-54.148 41.55-31.255 75.694-69.476 93.955-113.001 18.376-43.799 19.857-92.837-1.171-137.06-26.866-56.507-89.287-97.207-149.611-134.334-33.42-20.57-83.637-42.868-144.502-29.531-67.87 14.11-112.317 44.285-158.238 84.415z" fill="#000" opacity=".03"></path><g transform="translate(100 488.103)"><mask id="b" fill="#fff"><use xlink:href="#a"></use></mask><path d="M110.617.978c-18.65-.41-64.002.615-70.501.615-6.499 0-41.686 1.484-40.062 7.984 1.626 6.498 101.062 4.548 105.287 4.548 4.224 0 95.378-.144 138.557-.6 43.178-.455 55.885-2.505 55.476-7.424C298.962 1.183 218.1.803 204.777.477c-13.323-.324-75.509.91-94.16.501" fill="#F8F6F4" mask="url(#b)"></path></g><path d="M266.156 85.128c-9.905 5.742-15.871 18.215-14.602 30.74 1.269 12.526.476 33.296-1.11 34.882l6.183.635.952-37.26 2.22-.476 40.59-2.378 13.037 4.093s-7.885-20.392-9.47-21.661c-1.586-1.268-11.904-8.856-13.331-9.492-1.427-.634-6.076 8.24-17.395 8.24-5.41-.083-7.074-7.323-7.074-7.323" fill="#F69336"></path><path d="M263.83 88.011c-3.09-1.605-19.148-13.219-20.013-11.118-.865 2.1-6.795 26.684-6.795 26.684s14.577 7.165 16.183 6.176c1.606-.988 10.624-21.742 10.624-21.742M165.548 172.635c-3.75.393-11.855.424-18.165 10.315-6.31 9.89-21.317 38.54-21.829 41.61-.51 3.07-2.045 7.845 2.047 10.062 4.093 2.217 12.96 1.876 21.999-.683 0 0-1.535 7.676-2.217 9.38-.682 1.706-.341 12.279-.341 12.279l58.835-1.876s-.853-23.534-.17-23.534c.68 0-5.492 2.089-5.492 2.089s.205-59.73.716-59.9c.511-.171-.656.402-6.051-.507-5.395-.908-11.511 3.39-14.9 3.472-3.388.083-6.778-4.133-14.432-2.707" fill="#F69336"></path><path d="M256.435 202.665c4.933-1.629 10.928-1.404 14.568 2.302 3.642 3.705 5.005 9.46 3.503 14.433-1.502 4.973-5.772 8.986-10.806 10.27a15.43 15.43 0 01-5.818.325l-1.66-12.853 2.483-1.066-2.27-13.411z" fill="#91F5FF"></path><path d="M264.157 120.353c-1.282 9.547-.77 19.762-.898 29.34-.01.655-.007 1.347.283 1.888.503.94 1.635 1.065 2.618 1.094 8.826.26 17.69.022 26.55-.712.46-.038.933-.081 1.356-.317 1.22-.68 1.465-2.522 1.528-4.043.328-8.113.46-16.223.392-24.317-.01-1.16-.045-2.398-.629-3.304-.885-1.377-2.645-1.458-4.181-1.413-9.002.259-18.015.855-27.02 1.784" fill="#5AC9FF"></path><path d="M284.404 68.211c.1 2.308 1.538 16.633-.068 16.835-1.606.2-16.067 1.388-15.966-.72.1-2.107 1.273-9.106.268-9.307-1.003-.2-1.395-.384-2.9-.987-1.505-.602-6.824-2.409-5.52-12.645 0 0-3.758-2.077-3.495-3.917.263-1.84 5.391-1.907 5.786-3.025.394-1.118-.163-12.661 1.871-14.992 1.053-1.202 4.112-3.419 11.346-2.959 11.243.658 8.678 31.717 8.678 31.717M221.526 25.844c-2.648.857-4.14 2.701-4.14 6.938 0 6.778-2.853 37.696-2.258 41.62.594 3.925.95 4.638 2.853 5.708 1.904 1.07 20.454 12.368 20.454 12.368s5.708-17.243 5.351-17.243c-.356 0-14.983-5.59-15.22-6.54-.238-.952-.596-35.318-.12-35.675.477-.357 6.302 0 9.276-2.021 2.973-2.023 4.4-6.66 3.686-7.85-.713-1.188-5.232.476-5.589.833-.357.357 1.547-10.94 0-12.129-1.546-1.189-12.605-1.546-13.319.594-.713 2.14-.844 12.045-.974 13.397M207.789 231.667s-1.483 26.691 0 26.32c1.483-.37 17.053-6.672 17.053-6.672s1.853-24.839 1.111-25.21c-.74-.37-18.164 5.562-18.164 5.562M240.04 225.18c2.04 5.004 5.933 29.656 8.157 27.246 2.224-2.408 11.677-13.716 11.677-13.716s-1.853-20.76-2.78-20.389c-.927.371-17.053 6.858-17.053 6.858M299.975 162.347c-1.167 1.685-6.356 9.857-6.356 9.857s-2.699-.989-4.125-.6c-1.427.39-2.943 10.113-2.184 10.873.759.76 12.629 2.612 13.435 2.042.808-.57.808-6.125.808-6.125s4.389 1.593 6.724-1.52c2.334-3.113 17.77-25.683 18.678-28.017.907-2.335 2.075-6.356-.649-9.08s-9.857-12.97-9.857-12.97l-1.039 9.598-2.074 24.514-2.985.779-9.338-.26-1.038.909z" fill="#CE4C61"></path><path d="M168.211 145.706c1.346 6.727 3.363 18.498 3.363 18.498s18.05.089 18.217-2.432c.169-2.523-1.459-6.527-.035-6.973 2.186-.168 6.874-1.693 7.882-3.543 1.01-1.85-1.093-13.46-.6-14.507.492-1.048 5.226-1.972 4.844-4.764-2.525-2.219-7.322-2.572-7.274-4.588.048-2.018-1.677-12.295-3.864-13.473-2.186-1.177-18.329 1.178-22.701 4.71-4.372 3.53.168 27.072.168 27.072M191.286 207.502c0 2.594-.845 12.25.545 13.733 1.39 1.482 7.32 1.945 10.563.926 3.243-1.02 15.474-3.984 17.142-6.023 1.668-2.038-.371-3.335-1.206-3.15 0 0 5.375-4.91-.184-3.984 0 0 9.729-6.393-.834-4.447 0 0 3.613-4.634-3.892-2.688l-12.046 2.965s1.113-3.15.187-3.15c-.927 0-5.925.234-7.13 1.623-1.203 1.39-3.145 4.195-3.145 4.195" fill="#FF7470"></path><path d="M149.51 259.485c-1.111.614-31.685 71.693-30.342 76.795 1.342 5.101 40.007 102.571 42.156 99.081 2.148-3.491 19.6-26.314 19.6-26.314l-31.146-68.74s23.897-43.498 26.851-45.378c2.954-1.88 4.833 76.526 5.37 79.748.537 3.222 17.453 104.183 17.453 104.183l31.148-10.472s-18.259-94.516-17.453-98.813c.805-4.296-.806-99.618-1.074-101.229-.27-1.61-5.639-1.61-5.639-1.61l-.269-10.741s-55.546 2.877-56.656 3.49" fill="#009EEC"></path><g><path d="M251.058 265.748l-17.8 222.994-.313-.464h.002a79.958 79.958 0 006.002 1.433c2.019.4 4.047.749 6.086.985 4.06.471 8.208.633 12.105-.16l-.733.867 7.077-224.082.9.026-6.614 224.096-.012.373-.35.055h-.002c-4.177.764-8.401.499-12.527-.055-2.067-.279-4.115-.671-6.149-1.113a81.245 81.245 0 01-6.055-1.567l-.343-.106.03-.36 17.798-222.991.898.069z" fill="#231F20"></path><path d="M293.204 292.64c-1.861-13.641-3.09-22.757-3.09-22.757" stroke="#231F20" stroke-width=".9"></path><path d="M284.898 358.514c.367 3.259.735 6.526 1.245 9.749.132.796.27 1.622.48 2.342.027.064.06.19.078.206-.014-.001.09.146.142.235l.319.552.59 1.09 2.275 4.379 8.91 17.583 17.712 35.208c5.918 11.728 11.834 23.457 17.863 35.122a707.797 707.797 0 004.574 8.712c.775 1.441 1.556 2.886 2.37 4.282.202.346.41.694.616 1.008l.15.218c.019.04.156.166 0 .03-.07-.04.051.018-.178-.093-.19-.12-.646-.003-.619.011l.072-.029.144-.057.286-.115 2.272-.927c3.02-1.252 6.018-2.563 8.948-3.987a71.268 71.268 0 004.311-2.248c1.388-.792 2.794-1.644 3.875-2.633l.003-.003-.186 1.194-38.348-69.472-19.17-34.732-.6-1.085c-.099-.197-.2-.327-.298-.578-.106-.352-.116-.524-.157-.735l-.384-2.465-.707-4.911-1.364-9.825-2.669-19.654.892-.122 2.734 19.641 1.396 9.817.723 4.901.388 2.437.09.509c.05.146.188.35.277.524l.602 1.083 19.283 34.657 38.562 69.313.18.326-.265.222-.003.003c-1.284 1.158-2.718 1.999-4.157 2.821a72.937 72.937 0 01-4.4 2.276c-2.972 1.43-5.994 2.739-9.038 3.99l-2.289.924-.286.114-.142.056-.071.03c-.005.012-.25.06-.364-.002-.133-.057-.086-.047-.135-.077-.197-.165-.218-.23-.302-.333l-.186-.271a23.944 23.944 0 01-.653-1.074 147.508 147.508 0 01-2.379-4.332 719.618 719.618 0 01-4.554-8.746c-5.994-11.694-11.872-23.445-17.75-35.194l-17.595-35.267-8.845-17.606-2.254-4.373-.578-1.079-.295-.516c-.052-.09-.079-.11-.173-.292-.084-.154-.092-.236-.14-.359-.245-.852-.368-1.656-.506-2.477-.504-3.266-.86-6.531-1.217-9.8l.895-.096z" fill="#231F20"></path><path d="M276.25 268.398c.629 3.518 2.615 28.172 4.704 52.451M239.868 256.584c-.068.207.217 2.365.51 4.413a4.843 4.843 0 004.342 4.132l54.425 5.121a4.842 4.842 0 004.687-2.47l2.313-5.01M251.832 174.569c2.088.19 33.986 1.139 33.986 1.139" stroke="#231F20" stroke-width=".9"></path><path d="M292.542 269.471c1.116 0 4.672-2.231 5.44-7.531l8.507.696-2.72 5.231s-1.673 2.86-5.02 2.372c-3.348-.489-6.207-.768-6.207-.768" fill="#231F20"></path><path d="M239.856 257.877s58.089 7.89 58.191 7.582c.103-.308 1.127-3.483 1.127-3.483l-59.318-5.737v1.638zM276.25 268.398l.292 1.428 14.247 3.993-.725-4.538zM264.02 266.922l-.091 3.448-13.52-2.994.2-1.663z" fill="#231F20"></path><path d="M256.364 174.473c1.226-2.044 1.063-3.681 11.205-3.517 10.142.163 20.283.818 20.283.818M276.811 160.568v10.715M284.744 160.65v10.797" stroke="#231F20" stroke-width=".9"></path><path d="M314.874 124.966l.196-6.163c0-.502.076-1.082-.007-1.41a1.569 1.569 0 00-.639-.94c-.175-.117-.299-.17-.563-.251l-.733-.24-1.466-.477-5.864-1.908-2.933-.955-1.465-.477-.732-.238-.367-.12c-.1-.032-.178-.05-.27-.064l-24.484 1.557-12.31.754-3.077.188-.769.048-.383.024a1.265 1.265 0 00-.976.567 1.22 1.22 0 00-.203.66l-.002.38-.007 1.54-.016 3.083-.124 24.661-.062 12.33-.002.385c0 .123-.003.28.004.327.009.143.044.282.102.41a1.156 1.156 0 001.017.664l.77.02 1.542.04 6.164.163 24.656.649 12.33.324 6.162.163 1.524.038c.256.007.494-.095.687-.259.191-.167.316-.4.343-.654l.073-1.481c.362-8.214.812-16.425 1.545-24.624l.899.036-.958 24.645-.068 1.566a2.516 2.516 0 01-.824 1.636c-.462.42-1.09.66-1.715.647l-1.549-.044-6.163-.176-12.327-.356-24.656-.709-6.164-.176-1.54-.045-.771-.022a2.528 2.528 0 01-2.452-2.377c-.012-.313 0-.529-.002-.798l.093-12.334.185-24.667.022-3.083.012-1.542.003-.387a2.512 2.512 0 011.908-2.39c.153-.035.307-.058.463-.07l.386-.023.769-.045 3.078-.18 12.312-.725 12.31-.725 6.156-.362 3.078-.18 1.539-.091.77-.045.394-.023a2.547 2.547 0 01.917.136l.365.121.731.244 1.462.488 2.925.975 5.85 1.95 1.463.487.732.244c.228.067.572.205.81.382a2.53 2.53 0 011.017 1.526c.074.297.06.65.048.881l-.03.77-.24 6.162-.899-.035z" fill="#231F20"></path><path d="M300.473 111.19l-.505 49.997M261.327 119.965l-.207 32.972a1.484 1.484 0 001.488 1.493l28.88-.101a1.484 1.484 0 001.478-1.467l.414-33.993a1.483 1.483 0 00-1.54-1.5l-29.088 1.122c-.792.031-1.42.68-1.425 1.474z" stroke="#231F20" stroke-width=".9"></path><path d="M268.124 134.64a.897.897 0 01-.898-.897v-2.722a.899.899 0 111.796 0v2.722a.897.897 0 01-.898.897M282.163 134.299a.897.897 0 01-.897-.897v-2.722a.898.898 0 111.795 0v2.722a.898.898 0 01-.898.897" fill="#231F20"></path><path d="M265.384 142.487s3.182 4.205 9.379 3.693c6.195-.51 9.833-4.034 9.833-4.034M314.842 133.94c-.925 1.296-2.223 2.104-3.66 2.104-2.808 0-5.082-3.071-5.082-6.86 0-3.787 2.274-6.857 5.081-6.857 2.806 0 5.08 3.07 5.08 6.858 0 1.846-.54 3.522-1.42 4.755M313.179 130.235l2.2-44.017" stroke="#231F20" stroke-width=".9"></path><path d="M316.747 85.172a1.27 1.27 0 11-2.538 0 1.27 1.27 0 012.538 0" fill="#231F20"></path><path d="M256.036 201.041a11.49 11.49 0 012.785-.34c6.803 0 12.32 5.95 12.32 13.292 0 7.341-5.517 13.293-12.32 13.293-.712 0-1.412-.066-2.091-.192M272.568 236.947a2.27 2.27 0 11-4.54 0 2.27 2.27 0 014.54 0zM281.516 237.855a2.27 2.27 0 11-4.541 0 2.27 2.27 0 014.541 0z" stroke="#231F20" stroke-width=".9"></path><path d="M307.79 202.3c.2-1.662.42-3.393 1.005-5.054.29-.829.657-1.652 1.19-2.391.238-.387.574-.713.879-1.053.357-.295.694-.62 1.109-.836.786-.51 1.7-.75 2.595-.894.456-.02.89-.096 1.365-.062.47.01.946.11 1.402.261.925.299 1.703.938 2.286 1.653.587.726.984 1.547 1.298 2.375.615 1.668.87 3.394.993 5.11.058.854.075 1.73.044 2.575l.016 2.503.054 10.086c.054 13.449.09 26.894-.005 40.349l-.066 5.05c-.009.84-.044 1.69-.068 2.537-.002.396-.052.91-.105 1.394-.065.477-.27.846-.399 1.274l-3.577 9.443-7.233 18.83-14.584 37.615-1.853 4.696c-.325.795-.59 1.52-.994 2.419l-.072.16-.037.081c-.014.067-.292.288-.348.274-.4.106-.476.027-.636.018a5.375 5.375 0 01-.686-.198c-.42-.15-.818-.314-1.212-.485-3.113-1.395-6.067-2.998-9.01-4.66-1.468-.854-2.918-1.666-4.344-2.709a4.109 4.109 0 01-.276-.228 1.985 1.985 0 01-.154-.152c-.05-.073-.134-.111-.2-.352a.889.889 0 01-.016-.317l.02-.106c.016-.07.032-.145.048-.194l.101-.328c.138-.418.29-.811.441-1.21l.943-2.352c1.286-3.116 2.622-6.2 3.96-9.287 5.37-12.333 10.86-24.608 16.316-36.897l4.083-9.22 2.006-4.624.98-2.316c.158-.384.321-.777.457-1.149l.042-.123c.007-.02.017-.036.017-.097l.02-.297.04-.599c.297-6.703.496-13.43.727-20.147l.666-20.16.344-10.08c.132-3.377.216-6.682.427-10.125m1.129.142c-.209 3.266-.314 6.684-.454 10.024l-.379 10.076-.733 20.158c-.256 6.72-.477 13.433-.797 20.162l-.047.66-.025.332a.877.877 0 01-.044.21l-.059.175c-.155.417-.316.8-.479 1.192l-.993 2.325-2.018 4.623-4.051 9.238c-5.413 12.309-10.86 24.604-16.183 36.947-1.325 3.086-2.65 6.176-3.918 9.28l-.926 2.331c-.146.388-.295.78-.417 1.16l-.085.276c-.017.05-.02.079-.027.111l-.012.048c0 .016.013-.112-.019-.16-.069-.133-.054-.095-.044-.09l.072.07c.06.054.133.113.21.172 1.29.938 2.781 1.777 4.22 2.605 2.915 1.634 5.885 3.229 8.914 4.572.378.163.758.32 1.131.45.184.063.372.121.523.152.045.023.184-.01-.013.035-.004-.023-.24.157-.227.182l.026-.064.051-.129.904-2.25 1.833-4.694 14.457-37.656 7.17-18.85 3.543-9.43c.112-.372.321-.766.355-1.12.02-.355.064-.676.07-1.12.025-.835.062-1.664.072-2.504l.076-5.035c.13-13.438.102-26.885.105-40.33l-.007-10.085-.004-2.538c.034-.835.02-1.642-.03-2.464-.109-1.632-.349-3.268-.895-4.763-.531-1.481-1.453-2.85-2.826-3.315-.674-.252-1.432-.221-2.217-.153-.755.122-1.506.31-2.136.722-.655.368-1.202.914-1.64 1.548-.457.621-.787 1.35-1.055 2.102-.542 1.514-.766 3.144-.972 4.812" fill="#231F20"></path><path d="M276.909 332.222c-.9 1.8-9.113 16.651-8.55 17.214.562.562 3.15 3.037 3.824 2.025.675-1.013 8.214-17.214 8.214-17.214M282.527 335.523c-.753 1.865-7.757 17.323-7.151 17.839.605.516 3.382 2.777 3.974 1.714.591-1.063 6.815-17.813 6.815-17.813M287.856 338.694c-.584 1.926-6.185 17.945-5.535 18.405.648.46 3.615 2.465 4.11 1.353.496-1.111 5.203-18.349 5.203-18.349M280.358 322.304l16.09 8.1M232.392 488.88c-.77.481-8.953 4.909-8.76 5.968.192 1.06 32.152.963 32.826.674.674-.289.862-4.092.862-4.092M342.327 479.831c-.963 1.636-4.622 11.359-3.08 11.359 1.54 0 22.717-15.306 24.065-16.942 1.347-1.637-1.443-3.85-1.443-3.85M299.92 366.808c.505 1.287.044 2.67-1.03 3.09-1.071.42-2.349-.282-2.853-1.569-.504-1.286-.044-2.67 1.028-3.09 1.073-.42 2.35.282 2.855 1.57zM296.022 368.293c-2.603 1.04-5.932 2.064-10.027 2.769M303.278 364.305s-1.103.957-3.4 2.196" stroke="#231F20" stroke-width=".9"></path><path d="M255.966 369.501c-.16 1.325-1.239 2.284-2.409 2.141-1.17-.142-1.987-1.332-1.826-2.656.162-1.324 1.24-2.283 2.41-2.14 1.17.142 1.987 1.33 1.825 2.655zM255.98 369.335l4.96.39M242.433 368.286c.102 0 4.706.357 9.297.717M319.294 265.359c-.297 1.301-1.469 2.144-2.617 1.88-1.15-.261-1.84-1.527-1.543-2.83.297-1.3 1.47-2.143 2.618-1.88 1.149.262 1.838 1.53 1.542 2.83zM319.324 265.195l1.534.316M305.958 262.754c.101.011 4.645.842 9.173 1.672" stroke="#231F20" stroke-width=".99"></path><path d="M276.756 162.44s7.817 1.708 7.817 1.553c0-.156.154-2.693.154-2.693l-7.816-.154-.155 1.294zM147.635 257.938c-.65 2.027-1.432 3.906-2.186 5.838l-2.315 5.742-4.693 11.451-9.384 22.898c-3.093 7.645-6.184 15.294-9.063 23.014-.715 1.93-1.418 3.866-2.05 5.816-.322.973-.62 1.956-.837 2.925-.06.244-.061.452-.1.68.01.229.042.456.067.691.102.493.185.985.317 1.48.985 3.972 2.263 7.904 3.527 11.82 5.17 15.65 10.968 31.104 17.255 46.342 3.17 7.609 6.455 15.173 10.026 22.597a245.769 245.769 0 005.589 11.014c1.96 3.618 4.01 7.188 6.291 10.6l.001.002-.723-.033a640.71 640.71 0 0112.88-16.882l6.616-8.298.826-1.037.207-.26.103-.13.052-.064.026-.033a.786.786 0 00-.217.522c-.003.059-.006.018-.007.032-.005-.004.004.018 0-.008l-.05-.227c-.2-.734-.515-1.571-.824-2.374-.63-1.623-1.322-3.245-2.016-4.863-5.66-12.93-11.753-25.715-17.792-38.507l-9.117-19.172-2.272-4.8-1.122-2.422-.14-.316c-.042-.135-.095-.137-.177-.546-.018-.12.007-.347.019-.371l.036-.137c.027-.102.05-.155.073-.219.047-.133.094-.241.142-.354.19-.437.387-.838.587-1.243 1.62-3.194 3.35-6.272 5.074-9.37 3.447-6.19 7.033-12.294 10.632-18.391l5.436-9.123 2.756-4.542 1.402-2.26.716-1.125.37-.561c.14-.197.227-.35.45-.602l.637.636c-.067.078-.221.3-.33.467l-.356.55-.698 1.121-1.373 2.265-2.706 4.561-5.339 9.17a1351.492 1351.492 0 00-10.478 18.455c-1.709 3.093-3.433 6.189-5.013 9.332-.192.392-.384.787-.551 1.178l-.115.284c-.016.046-.036.096-.042.125l-.014.05c-.007.029.011-.045-.003-.066l.212.484 1.12 2.397 2.287 4.788 9.184 19.14c6.087 12.78 12.222 25.533 17.95 38.495a149.646 149.646 0 012.056 4.911c.322.833.642 1.656.892 2.556l.079.361c.011.065.017.152.022.226.002.044.008.067.004.127a.92.92 0 01-.13.37l-.027.032-.052.064-.104.13-.21.257-.833 1.032-6.68 8.25-13.359 16.502-.39.483-.333-.515-.001-.002c-2.304-3.448-4.365-7.04-6.336-10.673a246.197 246.197 0 01-5.607-11.055c-3.582-7.443-6.873-15.019-10.047-22.64-6.297-15.263-12.1-30.725-17.28-46.407-1.267-3.933-2.544-7.854-3.547-11.891-.132-.5-.224-1.027-.329-1.544-.032-.276-.07-.563-.079-.846.037-.282.055-.593.118-.85.233-1.045.537-2.035.861-3.022.642-1.974 1.346-3.916 2.064-5.852 2.888-7.74 5.979-15.39 9.074-23.04l9.384-22.902 4.693-11.448 2.311-5.735c.748-1.908 1.545-3.845 2.156-5.746l.867.241z" fill="#231F20"></path><path d="M174.538 290.625c.759 6.998 1.174 13.968 1.67 20.953l1.351 20.951 2.49 41.913-.007-.08c3.385 23.743 6.84 47.482 10.496 71.179a1877.5 1877.5 0 002.825 17.752l1.509 8.85c.53 2.93 1.054 5.905 1.726 8.718.084.344.175.69.269.98.038.124.112.302.087.246a.48.48 0 00-.035-.059l-.063-.087a1.045 1.045 0 00-.12-.132c-.076-.063 0-.02-.263-.204a1.504 1.504 0 00-.709-.218c-.19-.003-.041-.004-.079-.006l.018-.004.147-.032.148-.02.255-.056.518-.114c.339-.069.705-.168 1.059-.254 1.426-.351 2.867-.745 4.302-1.14 2.873-.797 5.74-1.637 8.599-2.499 2.855-.87 5.703-1.766 8.522-2.71 1.41-.471 2.808-.962 4.186-1.471.672-.268 1.385-.513 2.022-.798l.968-.417.805-.42.002-.002-.854 1.773c-.584-4.044-1.27-8.288-1.92-12.429l-1.982-12.493-3.979-24.99c-2.629-16.672-5.339-33.3-7.792-50.033-.075-.528-.133-1.143-.195-1.71-.043-.562-.017-1.064-.03-1.599l-.017-3.162-.037-6.325-.073-12.648-.147-25.301-.293-50.602.9-.011.636 50.605.319 25.304.158 12.651.08 6.327.04 3.162c.015.523-.006 1.063.04 1.572l.19 1.514c2.557 16.658 5.384 33.298 8.125 49.94 2.745 16.652 5.579 33.255 8.234 49.952l.047.303-.259.135-.002.001-1.047.542-1.05.447c-.699.306-1.41.545-2.115.82a142.895 142.895 0 01-4.266 1.47 321.942 321.942 0 01-8.6 2.678c-2.88.85-5.765 1.675-8.664 2.46-1.451.392-2.901.778-4.367 1.13-.743.177-1.442.352-2.258.478l-.315.04c-.039.001-.026.01-.106.006-.169-.01-.343-.144-.345-.165-.104-.107-.123-.163-.16-.226-.116-.23-.17-.409-.233-.602-.117-.376-.211-.745-.3-1.114-.683-2.95-1.183-5.904-1.7-8.864l-1.46-8.88c-.939-5.926-1.837-11.857-2.72-17.788-3.516-23.733-6.827-47.492-10.07-71.262l-.003-.018v-.02l-2.238-41.918-1.225-20.952c-.452-6.974-.83-13.983-1.538-20.902l.893-.115z" fill="#231F20"></path><path d="M140.648 347.548l7.135-6.6M140.826 340.057l6.372 1.285" stroke="#231F20" stroke-width=".9"></path><path d="M179.064 417.452c.859.514 4.293 3.434 4.293 4.807 0 1.374-11.676 39.836-12.534 39.492-.859-.342-3.434-2.403-3.434-2.403l-1.03-13.737-4.98-6.696 17.685-21.463zM226.97 473.599c.343 1.717.514 9.615.514 10.13 0 .516-20.431 11.333-21.806 11.333-1.373 0-15.625.687-15.625-.172 0-.858 1.718-2.404 1.718-2.404l8.24-3.09-.171-7.04 27.13-8.757zM190.474 114.106c.881 4.396 1.538 8.812 2.676 13.069.144.523.312 1.052.514 1.492.048.139.099.147.135.234.036.074.148.136.224.206.196.136.417.267.65.39.95.494 1.994.9 3.02 1.425.514.279 1.034.531 1.54 1.058.122.124.251.324.332.544.033.126.063.26.069.39a2.185 2.185 0 01-.09.415c-.237.482-.586.669-.87.83-1.164.558-2.281.688-3.327.971-.122.034-.254.07-.357.106l-.149.054c0 .006-.07.042-.023.007a.25.25 0 00.096-.158c.008-.019.013-.004.016-.009.004.004 0-.013 0 .01l.006.093c.005.117.012.242.028.38.05.531.13 1.086.203 1.632l.49 3.301.486 3.317c.152 1.111.301 2.23.325 3.408a6.359 6.359 0 01-.224 1.843c-.173.62-.493 1.2-.889 1.705-.806 1.013-1.903 1.63-2.979 2.084-2.18.933-4.453 1.257-6.7 1.535l-.148-1.438c2.166-.243 4.37-.55 6.31-1.365.967-.39 1.88-.919 2.474-1.662.606-.735.863-1.658.847-2.695-.047-2.117-.447-4.356-.73-6.553l-.458-3.319c-.07-.558-.142-1.11-.192-1.688a6.18 6.18 0 01-.029-.454l-.004-.117c-.001-.047.007-.134.014-.198.012-.074.015-.131.042-.214.053-.114.135-.23.23-.32.15-.123.217-.138.334-.204l.244-.09c.16-.054.299-.086.445-.127 1.105-.274 2.238-.435 3.094-.846.203-.095.34-.236.354-.259.008.033.007-.016-.113-.168-.262-.29-.744-.574-1.207-.82-.952-.502-1.988-.914-3.013-1.46a7.577 7.577 0 01-.776-.478c-.13-.114-.271-.198-.386-.359-.103-.152-.255-.351-.293-.48-.258-.577-.414-1.12-.563-1.67-1.12-4.376-1.73-8.807-2.558-13.159l.88-.189z" fill="#231F20"></path><path d="M187.546 153.465l1.192 10.725M168.773 165.547l-1.616-14.465" stroke="#231F20" stroke-width=".9"></path><path d="M203.17 108.712c-.53-9.268-10.195 1.457-10.857-.397-.662-1.853 5.164-5.295 2.25-7.546-2.912-2.251-12.843 9.4-24.229 11.783-11.386 2.384-11.52 3.31-11.52 3.31s-1.058-3.972-2.383-3.443c-1.324.53 1.59 3.708 1.59 3.708s-4.634-1.588-4.767-.265c-.132 1.324 4.104 1.324 4.104 1.324l9.556 36.486c.397-.662 9.51-13.58 10.04-14.242a.88.88 0 00.113-.232c-.187.028-.374.06-.568.06-2.208 0-3.997-1.898-3.997-4.24 0-2.343 1.789-4.24 3.997-4.24.95 0 1.812.366 2.499.954l2.265-.555s-2.19-10.283-3.647-13.064c0 0 26.083-.132 25.554-9.4" fill="#231F20"></path><path d="M188.93 138.872s2.484 2.37 5.984 1.693" stroke="#231F20" stroke-width=".9"></path><path d="M184.302 126.114s1.016-4.29 5.42-5.023" stroke="#231F20" stroke-width="1.8" stroke-linecap="round" stroke-linejoin="round"></path><path d="M165.985 171.267c-3.174.49-6.34.972-9.318 2.025-2.974 1.024-5.742 2.64-7.841 4.93-2.212 2.228-3.337 5.171-4.78 8.098a330.114 330.114 0 01-4.403 8.6c-2.996 5.695-6.074 11.344-9.152 16.988l-4.613 8.463-1.117 2.113-1.086 2.138c-.673 1.406-1.238 2.842-1.437 4.32-.206 1.47-.061 2.957.475 4.324.268.681.614 1.339 1.046 1.95.19.32.436.607.681.895.24.29.488.609.717.756.194.216.548.327.823.5.333.114.662.246 1.017.336.717.176 1.47.283 2.237.352 1.537.135 3.12.076 4.695-.016 3.158-.205 6.32-.677 9.464-1.237 3.147-.56 6.278-1.236 9.396-1.967a269.463 269.463 0 0013.957-3.63c1.552-.457 3.11-.832 4.664-1.253l18.68-4.834h.005l-.333.443-.428-20.005.554.428-51.87 12.432-.21-.876 51.87-12.43.543-.131.012.558.43 20.005.007.35-.34.094-.005.001-18.553 5.237c-1.542.438-3.107.838-4.631 1.308-1.544.47-3.09.922-4.64 1.361-3.101.876-6.215 1.71-9.35 2.467-3.137.75-6.29 1.444-9.47 2.025-3.181.58-6.385 1.074-9.643 1.301-1.63.101-3.269.172-4.938.034a16.706 16.706 0 01-2.521-.388c-.422-.106-.849-.266-1.27-.419-.415-.234-.848-.385-1.225-.75-.43-.327-.663-.658-.937-.986-.274-.326-.547-.652-.77-1.025a10.916 10.916 0 01-1.208-2.294c-.633-1.632-.794-3.444-.54-5.152.246-1.716.894-3.305 1.613-4.785l1.11-2.156 1.149-2.142 4.668-8.442c3.111-5.623 6.22-11.247 9.245-16.911a329.652 329.652 0 004.436-8.54c.741-1.435 1.34-2.862 2.147-4.345.178-.374.394-.728.63-1.073l.683-1.04.783-.974.395-.483.438-.445c2.3-2.423 5.29-4.083 8.398-5.09 3.116-1.039 6.354-1.469 9.53-1.903l.131.89z" fill="#231F20"></path><path d="M146.897 236.873c-.488 3.344-1.004 5.62-1.521 5.912-2.27 1.282-3.748 2.466-3.55 5.326.195 2.86 3.55 2.958 3.55 2.958l.394 6.51s48.773-2.867 59.917-2.669M149.967 201.754c-.038.152-.393 6.106-.944 13.434M205.392 247.119s-47.59 2.175-60.017 3.95M168.803 164.377c.1.394 8.975 8.777 8.975 8.777l-4.34 8.58-8.184-12.13 3.55-5.227zM189.02 163.588c.592.789 5.326 6.804 5.326 6.804l-6.016 10.75-5.128-8.679 5.819-8.875zM177.383 173.154s2.663.986 5.819-.69M194.346 170.392l6.608 1.183M189.933 206.04c2.4-1.198 3.054-5.343 9.923-5.343M189.933 219.78c4.005-.955 6.06 1.673 10.714 1.014 4.654-.66 17.822-4.128 17.28-5.551-.541-1.423-6.449-.153-9.48.21M198.548 205.822c3.271.327 17.906-4.446 18.538-3.271.631 1.176-5.157 4.81-11.482 5.575" stroke="#231F20" stroke-width=".9"></path><path d="M205.604 208.125c5.506-1.097 14.364-3.744 14.852-2.835.632 1.175-7.743 5.524-14.067 6.288" stroke="#231F20" stroke-width=".9"></path><path d="M205.713 211.901c5.537-.94 13.113-2.727 13.519-1.873.573 1.205-4.5 4.762-10.854 5.215M175.476 257.35s-2.212 32.02-2.634 31.915c-.42-.105-5.477-32.021-5.477-32.021" stroke="#231F20" stroke-width=".9"></path><path d="M189.513 129.601a.926.926 0 01-1.063-.764l-.249-1.525a.924.924 0 111.825-.3l.25 1.525a.925.925 0 01-.763 1.064M256.222 153.158l-12.93-.954-3.232-.238c-1.087-.063-2.125-.224-3.19-.239-2.113-.064-4.247.15-6.223.82-1.968.668-3.738 1.901-4.853 3.633-1.141 1.719-1.597 3.826-1.686 5.917-.095 2.097.263 4.236.487 6.376.271 2.136.561 4.271.878 6.403 1.254 8.532 2.705 17.042 4.178 25.545a2675.249 2675.249 0 004.593 25.489l.002.006-.596-.35a648.994 648.994 0 0012.602-4.937 299.938 299.938 0 006.237-2.6c2.04-.9 4.16-1.808 5.981-2.87l.005-.003-.424.925-8.167-50.715.883-.17 8.624 50.662.053.314-.263.145-.005.003c-2.038 1.137-4.121 1.976-6.213 2.858a293.2 293.2 0 01-6.304 2.504 657.945 657.945 0 01-12.705 4.732l-.5.18-.096-.53-.001-.006a2696.083 2696.083 0 01-4.593-25.482c-1.473-8.509-2.925-17.021-4.181-25.57a300.841 300.841 0 01-.88-6.423c-.224-2.146-.59-4.294-.494-6.52.093-2.199.572-4.473 1.833-6.376 1.232-1.917 3.203-3.278 5.311-3.99 2.12-.718 4.352-.934 6.544-.87 1.097.015 2.2.184 3.266.245l3.224.237 12.897.95-.062.899z" fill="#231F20"></path><path fill="#231F20" d="M200.713 220.802l-.049 11.476-.588-.43 27.18-9.177-.585.775 1.292-25.132.9.032-.898 25.145-.01.316-.301.096-27.302 8.802-.59.19.002-.62.05-11.478zM227.412 153.685a784.117 784.117 0 00-9.593-2.253c-1.602-.357-3.204-.729-4.811-1.025-1.588-.303-3.22-.497-4.762-.232-1.538.278-2.96 1.055-3.97 2.254-1.023 1.193-1.635 2.703-2.084 4.233-.857 3.11-.864 6.398-.885 9.688-.04 6.572-.26 13.142-.037 19.718.093 3.288.148 6.574.028 9.858a154.27 154.27 0 01-.498 9.852l-.9-.006.532-39.453c.03-3.265.034-6.628.936-9.89.477-1.61 1.127-3.225 2.267-4.552 1.122-1.335 2.76-2.229 4.468-2.526 1.728-.288 3.425-.069 5.057.243 1.627.31 3.232.66 4.84 1.014 3.212.71 6.416 1.449 9.619 2.201l-.207.876z"></path><path d="M247.34 151.572c3.772-3.772 3.93-20.325 2.718-28.412-1.212-8.088-4.622-22.425 11.45-36.154 6.228-4.622 4.323-3.048 8.813-5.383M286.214 82.688c4.447 3.458 12.888 8.491 14.738 10.576 1.85 2.086 9.512 20.26 9.882 21.495M298.75 161.395c-.466 1.37-5.478 9.754-5.478 9.754M294.373 171.76c-4.414-2.03-6.62-1.148-7.414 1.588-.795 2.737-1.324 8.65.44 8.65 1.766 0 3.002-7.502 3.002-7.502" stroke="#231F20" stroke-width=".9"></path><path d="M297.968 172.733c-4.412-2.03-5.096-1.062-5.89 1.674-.795 2.736-1.325 8.65.441 8.65 1.765 0 3-7.502 3-7.502" stroke="#231F20" stroke-width=".9"></path><path d="M303.43 174.03c-4.741-1.059-6.8-2.6-6.782 1.32-.204 2.841.519 8.735 2.245 8.365 1.725-.37 1.36-7.965 1.36-7.965" stroke="#231F20" stroke-width=".9"></path><path d="M316.89 128.713c1.542 2.072 2.934 4.241 4.296 6.41l2.064 3.207c.71 1.028 1.497 2.169 1.998 3.466a8.521 8.521 0 01.543 4.138c-.163 1.397-.652 2.707-1.27 3.91-.638 1.175-1.47 2.294-2.204 3.283a94.686 94.686 0 00-2.19 3.121c-2.844 4.235-5.584 8.56-8.29 12.905l-4.031 6.535c-.278.5-.777 1.243-1.421 1.613-.644.403-1.372.579-2.065.624-1.4.066-2.7-.221-3.973-.687l.325-.84c1.137.38 2.403.61 3.565.51.58-.054 1.13-.22 1.563-.514.454-.31.692-.67 1.026-1.286a334.8 334.8 0 013.885-6.642c2.633-4.402 5.293-8.79 8.159-13.066a98.425 98.425 0 012.205-3.182c.787-1.072 1.478-2.02 2.063-3.102.545-1.075.952-2.206 1.08-3.36.122-1.15 0-2.31-.42-3.407-.41-1.107-1.07-2.107-1.797-3.193-.72-1.094-1.343-2.215-1.988-3.324-1.287-2.218-2.54-4.44-3.868-6.614l.745-.505z" fill="#231F20"></path><path d="M268.57 82.464c-3.132 3.382 2.746 8.822 4.66 8.906 1.914.083 16.027-4.193 14.4-7.574M285.986 67.404c.076.76.305 15.512.305 15.512M270.423 73.697l-.383 8.208" stroke="#231F20" stroke-width=".9"></path><path d="M272.057 74.08c-.063.294-.13.233-.194.235l-.193-.005c-.13-.004-.259-.004-.387-.013-.259-.022-.518-.028-.776-.064a12.602 12.602 0 01-1.543-.26 10.363 10.363 0 01-2.93-1.168c-1.84-1.08-3.256-2.825-3.994-4.804-.395-.99-.529-2.105-.551-3.109-.03-1.024.022-2.03.101-3.028l.067-.745.017-.181c-.012.074.026.162.026.162.016.017-.041-.058-.106-.114-.286-.259-.72-.531-1.124-.801a17.613 17.613 0 01-1.255-.884 5.87 5.87 0 01-.613-.554l-.146-.164c-.053-.066-.138-.17-.191-.296-.141-.243-.107-.688.041-.897.278-.435.555-.544.802-.7.252-.136.494-.24.736-.338.48-.194.953-.354 1.414-.518.461-.164.918-.328 1.322-.52.198-.093.39-.201.504-.296.055-.058.064-.05.087-.103.027-.053.06-.15.09-.247.227-.847.318-1.855.41-2.815.087-.973.142-1.954.204-2.936l.149-2.95c.044-.96.054-2.036.36-3.05.557-2.044 1.944-3.775 3.632-4.94l.522.734c-1.534 1.103-2.724 2.672-3.177 4.469-.252.892-.243 1.815-.27 2.824l-.094 2.97c-.038.99-.098 1.982-.177 2.976-.095 1.004-.16 1.976-.432 3.043-.043.139-.085.278-.167.447-.075.176-.246.363-.372.472-.265.22-.513.347-.758.468-.488.233-.962.403-1.431.574-.466.17-.93.33-1.364.509-.216.089-.426.183-.608.283-.175.087-.346.24-.325.232.016 0 .029-.167.005-.19-.004-.012-.01-.018.012.012l.1.11c.144.149.31.295.49.436.36.28.76.544 1.173.812.415.278.833.52 1.287.916.115.111.237.215.368.45.061.107.13.32.112.517l-.016.19-.06.73c-.07.968-.112 1.938-.077 2.89.035.966.146 1.84.49 2.693.655 1.713 1.884 3.2 3.466 4.112a8.977 8.977 0 002.559.994c.452.102.913.178 1.379.223.23.03.467.033.7.053.117.009.236.005.353.01l.177.002c.059.005.117-.053.176.243v.9z" fill="#231F20"></path><path d="M290.967 49.469c-.804-9.405-4.686-13.94-11.103-14.204-6.417-.266-9.906.57-12.462 3.181 3.606 6.204 8.354 15.05 8.354 15.05s1.64-1.22 2.44-1.22c2.078 0 4.083 1.887 4.083 4.083 0 2.096-2.402 4.514-4.348 4.667 0 0 7.651 10.627 8.134 11.19.481.562 5.707-13.343 4.902-22.747" fill="#231F20"></path><path d="M264.986 48.452s3.727.682 4.986 3.831" stroke="#231F20" stroke-width="1.8" stroke-linecap="round"></path><path d="M262.204 63.88s3.57.63 4.723-2.046" stroke="#231F20" stroke-width=".9"></path><path d="M266.489 55.436a.769.769 0 01-.769-.768v-1.65a.768.768 0 011.537 0v1.65a.769.769 0 01-.768.768" fill="#231F20"></path><path d="M262.707 85.967c-1.579-.971-20.397-11.777-20.64-11.17-.242.608-7.405 25.375-6.677 25.86.728.486 13.84 6.678 13.84 6.678" stroke="#231F20" stroke-width=".9"></path><path d="M236.44 93.307c-3.665-1.601-6.953-3.545-10.357-5.444-3.38-1.889-6.698-3.94-10.005-5.94a6.918 6.918 0 01-2.322-2.31c-.591-.923-.93-1.927-1.201-2.92-.492-1.996-.657-4.002-.643-5.978-.023-.992.054-1.972.078-2.958l.243-2.93.561-5.777c.678-7.7 1.455-15.425 1.683-23.114.013-.955.02-1.918-.048-2.831-.09-1.071.062-2.13.373-3.126a9.662 9.662 0 011.41-2.767 10.32 10.32 0 012.223-2.15c1.712-1.162 3.742-1.751 5.746-1.869l1.514-.01c.526.044.99.108 1.484.18.97.145 1.932.33 2.889.546l-.19.88a39.396 39.396 0 00-2.832-.462c-.466-.057-.963-.11-1.4-.138l-1.392.047c-1.853.157-3.654.743-5.13 1.797a9.074 9.074 0 00-1.89 1.92 8.385 8.385 0 00-1.153 2.413c-.253.853-.366 1.75-.28 2.61.09 1.019.094 1.994.094 2.975-.131 7.803-.758 15.524-1.433 23.251l-.536 5.792-.223 2.862c-.018.948-.09 1.904-.062 2.848-.01 1.894.17 3.778.611 5.541.446 1.777 1.31 3.298 2.751 4.183 3.278 2.076 6.573 4.062 9.866 6.107l4.948 3.029c1.637.998 3.321 2.052 4.95 2.904l-.326.839z" fill="#231F20"></path><path d="M232.84 25.87c2.064 0 5.1-3.034 6.678-2.67 1.578.364-.122 5.22-2.793 6.555-2.67 1.337-5.948 2.308-9.347 2.065 0 0-.85 35.936.12 40.55M227.312 69.463l14.092 7.029" stroke="#231F20" stroke-width=".9"></path><path d="M228.664 23.695c.75-.975.93-12.253 2.055-12.178 1.125.075.816 12.978.816 12.978s1.82-11.562 2.945-11.486c1.125.075.72 10.815.196 12.24M228.289 23.84c.524-1.425.213-11.413-.912-11.488-1.125-.076-.95 10.358-1.7 11.334M224.768 23.482c.525-1.426.274-9.92-.85-9.995-1.126-.076-.847 9.378-1.596 10.352M306.488 262.653l-73.283-7.056a5.39 5.39 0 01-4.836-6l3.718-31.361M303.664 177.416l16.049 3.937a5.392 5.392 0 014.106 5.197l.498 71.847a5.388 5.388 0 01-3.036 4.888M304.613 178.176l-1.898 83.918M205.894 230.791l-.15 30.466s16.823-6.366 16.974-6.822c.152-.453 1.213-29.707 1.213-29.707" stroke="#231F20" stroke-width=".9"></path><path d="M222.608 254.074c.461 1.384 2.42 7.147 2.42 7.147s-19.48 14.063-24.436 15.907c-4.957 1.844-5.303-1.499-4.265-2.535 1.037-1.038 9.415-13.337 9.415-13.337l16.866-7.182z" fill="#231F20"></path><path d="M238.17 224.681l6.8 25.129s2.19 5.303 3.803 5.072c1.614-.23 9.683-13.141 9.683-13.141l-2.766-24.321" stroke="#231F20" stroke-width=".9"></path><path d="M258.456 241.74c.577 1.5 1.152 5.188.922 6.456-.23 1.268-5.648 24.668-11.296 25.82-5.648 1.153-4.61-22.477-3.458-25.244 0 0 2.305 6.57 4.15 6.11 1.844-.461 9.682-13.141 9.682-13.141M288.51 41.974c9.938.71 15.82 4.259 15.211 18.861-.608 14.604 1.42 25.758 1.42 25.758s-11.256-9.532-11.763-20.484c-.507-10.953-2.94-15.414-2.94-15.414l-2.332-8.62" fill="#231F20"></path></g></g></svg> 